<mxfile host="app.diagrams.net" agent="Mozilla/5.0 (Windows NT 10.0; Win64; x64) AppleWebKit/537.36 (KHTML, like Gecko) Chrome/98.0.4758.139 Safari/537.36" version="26.0.4">
  <diagram name="第 1 页" id="YaW6Qq6nIcFwjMoLfpzU">
    <mxGraphModel dx="2354" dy="639" grid="1" gridSize="10" guides="1" tooltips="1" connect="1" arrows="1" fold="1" page="1" pageScale="1" pageWidth="1169" pageHeight="827" math="0" shadow="0">
      <root>
        <mxCell id="0" />
        <mxCell id="1" parent="0" />
        <mxCell id="0nwvGlXKgpNKtvV_KcSy-1" value="" style="sketch=0;aspect=fixed;pointerEvents=1;shadow=0;dashed=0;html=1;strokeColor=#666666;labelPosition=center;verticalLabelPosition=bottom;verticalAlign=top;align=center;fillColor=#f5f5f5;shape=mxgraph.azure.laptop;fontColor=#333333;rotation=0;" vertex="1" parent="1">
          <mxGeometry x="-761" y="1355" width="190" height="114" as="geometry" />
        </mxCell>
        <mxCell id="0nwvGlXKgpNKtvV_KcSy-2" value="" style="rounded=1;whiteSpace=wrap;html=1;shadow=0;" vertex="1" parent="1">
          <mxGeometry x="-741" y="1100" width="160" height="210" as="geometry" />
        </mxCell>
        <mxCell id="0nwvGlXKgpNKtvV_KcSy-3" value="&lt;font style=&quot;font-size: 26px;&quot;&gt;ETH1&lt;/font&gt;" style="rounded=0;whiteSpace=wrap;html=1;fillColor=#f8cecc;strokeColor=#b85450;rotation=0;" vertex="1" parent="1">
          <mxGeometry x="-710.16" y="1254" width="100" height="50" as="geometry" />
        </mxCell>
        <mxCell id="0nwvGlXKgpNKtvV_KcSy-4" value="i.MX8" style="text;strokeColor=none;align=center;fillColor=none;html=1;verticalAlign=middle;whiteSpace=wrap;rounded=0;fontSize=26;" vertex="1" parent="1">
          <mxGeometry x="-755.1600000000001" y="1108" width="190" height="40" as="geometry" />
        </mxCell>
        <mxCell id="0nwvGlXKgpNKtvV_KcSy-6" value="FDCAN1" style="rounded=0;whiteSpace=wrap;html=1;fillColor=#dae8fc;strokeColor=#6c8ebf;gradientColor=none;fontSize=22;" vertex="1" parent="1">
          <mxGeometry x="-710.16" y="1157" width="100" height="50" as="geometry" />
        </mxCell>
        <mxCell id="0nwvGlXKgpNKtvV_KcSy-8" style="edgeStyle=orthogonalEdgeStyle;rounded=0;orthogonalLoop=1;jettySize=auto;html=1;exitX=0.5;exitY=1;exitDx=0;exitDy=0;" edge="1" parent="1">
          <mxGeometry relative="1" as="geometry">
            <mxPoint x="-606" y="1382.5" as="sourcePoint" />
            <mxPoint x="-606" y="1382.5" as="targetPoint" />
          </mxGeometry>
        </mxCell>
        <mxCell id="0nwvGlXKgpNKtvV_KcSy-10" value="" style="rounded=1;whiteSpace=wrap;html=1;shadow=0;" vertex="1" parent="1">
          <mxGeometry x="-660" y="590" width="280.83" height="380" as="geometry" />
        </mxCell>
        <mxCell id="0nwvGlXKgpNKtvV_KcSy-11" value="STM32" style="text;align=center;html=1;verticalAlign=middle;whiteSpace=wrap;rounded=0;fontSize=26;" vertex="1" parent="1">
          <mxGeometry x="-570" y="600" width="100" height="33" as="geometry" />
        </mxCell>
        <mxCell id="0nwvGlXKgpNKtvV_KcSy-12" value="FDCAN" style="rounded=0;whiteSpace=wrap;html=1;fillColor=#dae8fc;strokeColor=#6c8ebf;gradientColor=none;fontSize=24;" vertex="1" parent="1">
          <mxGeometry x="-659.1700000000001" y="660" width="89.17" height="57" as="geometry" />
        </mxCell>
        <mxCell id="0nwvGlXKgpNKtvV_KcSy-13" value="" style="html=1;shadow=0;dashed=0;align=center;verticalAlign=middle;shape=mxgraph.arrows2.twoWayArrow;dy=0.74;dx=18.33;" vertex="1" parent="1">
          <mxGeometry x="-379.1700000000001" y="670" width="70" height="30" as="geometry" />
        </mxCell>
        <mxCell id="0nwvGlXKgpNKtvV_KcSy-14" value="&lt;font style=&quot;font-size: 26px;&quot;&gt;ETH&lt;/font&gt;" style="rounded=0;whiteSpace=wrap;html=1;fillColor=#dae8fc;strokeColor=#6c8ebf;" vertex="1" parent="1">
          <mxGeometry x="-659.1700000000001" y="852" width="89.17" height="57" as="geometry" />
        </mxCell>
        <mxCell id="0nwvGlXKgpNKtvV_KcSy-15" value="&lt;font style=&quot;font-size: 21px;&quot;&gt;UART1&lt;/font&gt;&lt;div&gt;&lt;font style=&quot;font-size: 21px;&quot;&gt;UART2&lt;/font&gt;&lt;/div&gt;" style="rounded=0;whiteSpace=wrap;html=1;fillColor=#d5e8d4;strokeColor=#82b366;" vertex="1" parent="1">
          <mxGeometry x="-470" y="660" width="90" height="50" as="geometry" />
        </mxCell>
        <mxCell id="0nwvGlXKgpNKtvV_KcSy-16" value="" style="rounded=1;whiteSpace=wrap;html=1;shadow=0;" vertex="1" parent="1">
          <mxGeometry x="-308.1700000000001" y="655" width="278.17" height="63.25" as="geometry" />
        </mxCell>
        <mxCell id="0nwvGlXKgpNKtvV_KcSy-17" value="&lt;span style=&quot;font-size: 24px;&quot;&gt;注射泵1&lt;/span&gt;" style="rounded=1;whiteSpace=wrap;html=1;fillColor=#d5e8d4;strokeColor=#82b366;glass=0;shadow=0;" vertex="1" parent="1">
          <mxGeometry x="-299" y="665" width="110" height="45" as="geometry" />
        </mxCell>
        <mxCell id="0nwvGlXKgpNKtvV_KcSy-18" value="&lt;span style=&quot;font-size: 24px;&quot;&gt;注射泵n&lt;/span&gt;" style="rounded=1;whiteSpace=wrap;html=1;fillColor=#d5e8d4;strokeColor=#82b366;glass=0;shadow=0;" vertex="1" parent="1">
          <mxGeometry x="-150" y="665" width="110" height="45" as="geometry" />
        </mxCell>
        <mxCell id="0nwvGlXKgpNKtvV_KcSy-19" value="..." style="text;strokeColor=none;align=center;fillColor=none;html=1;verticalAlign=middle;whiteSpace=wrap;rounded=0;fontSize=39;" vertex="1" parent="1">
          <mxGeometry x="-200" y="660" width="60" height="30" as="geometry" />
        </mxCell>
        <mxCell id="0nwvGlXKgpNKtvV_KcSy-20" value="" style="html=1;shadow=0;dashed=0;align=center;verticalAlign=middle;shape=mxgraph.arrows2.twoWayArrow;dy=0.74;dx=18.33;" vertex="1" parent="1">
          <mxGeometry x="-379.1700000000001" y="743.3800000000001" width="70" height="30" as="geometry" />
        </mxCell>
        <mxCell id="0nwvGlXKgpNKtvV_KcSy-21" value="" style="rounded=1;whiteSpace=wrap;html=1;shadow=0;" vertex="1" parent="1">
          <mxGeometry x="-308.1700000000001" y="728.3800000000001" width="278.17" height="63.25" as="geometry" />
        </mxCell>
        <mxCell id="0nwvGlXKgpNKtvV_KcSy-22" value="&lt;span style=&quot;font-size: 24px;&quot;&gt;切换阀1&lt;/span&gt;" style="rounded=1;whiteSpace=wrap;html=1;fillColor=#d5e8d4;strokeColor=#82b366;glass=0;shadow=0;" vertex="1" parent="1">
          <mxGeometry x="-299" y="738.3800000000001" width="110" height="45" as="geometry" />
        </mxCell>
        <mxCell id="0nwvGlXKgpNKtvV_KcSy-23" value="&lt;span style=&quot;font-size: 24px;&quot;&gt;切换阀n&lt;/span&gt;" style="rounded=1;whiteSpace=wrap;html=1;fillColor=#d5e8d4;strokeColor=#82b366;glass=0;shadow=0;" vertex="1" parent="1">
          <mxGeometry x="-150" y="738.3800000000001" width="110" height="45" as="geometry" />
        </mxCell>
        <mxCell id="0nwvGlXKgpNKtvV_KcSy-24" value="..." style="text;strokeColor=none;align=center;fillColor=none;html=1;verticalAlign=middle;whiteSpace=wrap;rounded=0;fontSize=39;" vertex="1" parent="1">
          <mxGeometry x="-200" y="733.3800000000001" width="60" height="30" as="geometry" />
        </mxCell>
        <mxCell id="0nwvGlXKgpNKtvV_KcSy-25" value="" style="html=1;shadow=0;dashed=0;align=center;verticalAlign=middle;shape=mxgraph.arrows2.twoWayArrow;dy=0.74;dx=18.33;" vertex="1" parent="1">
          <mxGeometry x="-379.1700000000001" y="815" width="70" height="30" as="geometry" />
        </mxCell>
        <mxCell id="0nwvGlXKgpNKtvV_KcSy-26" value="&lt;font&gt;USB&lt;/font&gt;" style="rounded=0;whiteSpace=wrap;html=1;fillColor=#d5e8d4;strokeColor=#82b366;fontSize=26;" vertex="1" parent="1">
          <mxGeometry x="-470" y="805" width="90" height="50" as="geometry" />
        </mxCell>
        <mxCell id="0nwvGlXKgpNKtvV_KcSy-27" value="" style="rounded=1;whiteSpace=wrap;html=1;shadow=0;" vertex="1" parent="1">
          <mxGeometry x="-308.1700000000001" y="800" width="278.17" height="63.25" as="geometry" />
        </mxCell>
        <mxCell id="0nwvGlXKgpNKtvV_KcSy-28" value="&lt;font style=&quot;font-size: 19px;&quot;&gt;压力传感器1&lt;/font&gt;" style="rounded=1;whiteSpace=wrap;html=1;fillColor=#d5e8d4;strokeColor=#82b366;glass=0;shadow=0;" vertex="1" parent="1">
          <mxGeometry x="-299" y="810" width="110" height="45" as="geometry" />
        </mxCell>
        <mxCell id="0nwvGlXKgpNKtvV_KcSy-29" value="..." style="text;strokeColor=none;align=center;fillColor=none;html=1;verticalAlign=middle;whiteSpace=wrap;rounded=0;fontSize=39;" vertex="1" parent="1">
          <mxGeometry x="-200" y="805" width="60" height="30" as="geometry" />
        </mxCell>
        <mxCell id="0nwvGlXKgpNKtvV_KcSy-30" value="&lt;font style=&quot;font-size: 19px;&quot;&gt;压力传感器n&lt;/font&gt;" style="rounded=1;whiteSpace=wrap;html=1;fillColor=#d5e8d4;strokeColor=#82b366;glass=0;shadow=0;" vertex="1" parent="1">
          <mxGeometry x="-150" y="810" width="110" height="45" as="geometry" />
        </mxCell>
        <mxCell id="0nwvGlXKgpNKtvV_KcSy-31" value="&lt;font style=&quot;font-size: 21px;&quot;&gt;UART3&lt;/font&gt;&lt;div&gt;&lt;font style=&quot;font-size: 21px;&quot;&gt;UART4&lt;/font&gt;&lt;/div&gt;" style="rounded=0;whiteSpace=wrap;html=1;fillColor=#d5e8d4;strokeColor=#82b366;" vertex="1" parent="1">
          <mxGeometry x="-470" y="733" width="90" height="50" as="geometry" />
        </mxCell>
        <mxCell id="0nwvGlXKgpNKtvV_KcSy-32" value="&lt;span style=&quot;font-size: 21px;&quot;&gt;ADC&lt;/span&gt;&lt;br&gt;&lt;div&gt;&lt;span style=&quot;font-size: 21px;&quot;&gt;PWM&lt;/span&gt;&lt;/div&gt;" style="rounded=0;whiteSpace=wrap;html=1;fillColor=#d5e8d4;strokeColor=#82b366;" vertex="1" parent="1">
          <mxGeometry x="-470" y="880" width="90" height="50" as="geometry" />
        </mxCell>
        <mxCell id="0nwvGlXKgpNKtvV_KcSy-33" value="" style="html=1;shadow=0;dashed=0;align=center;verticalAlign=middle;shape=mxgraph.arrows2.twoWayArrow;dy=0.74;dx=18.33;" vertex="1" parent="1">
          <mxGeometry x="-379.1700000000001" y="888.3800000000001" width="70" height="30" as="geometry" />
        </mxCell>
        <mxCell id="0nwvGlXKgpNKtvV_KcSy-34" value="" style="rounded=1;whiteSpace=wrap;html=1;shadow=0;" vertex="1" parent="1">
          <mxGeometry x="-308.1700000000001" y="873.3800000000001" width="278.17" height="63.25" as="geometry" />
        </mxCell>
        <mxCell id="0nwvGlXKgpNKtvV_KcSy-35" value="&lt;font style=&quot;font-size: 19px;&quot;&gt;温控设备1&lt;/font&gt;" style="rounded=1;whiteSpace=wrap;html=1;fillColor=#d5e8d4;strokeColor=#82b366;glass=0;shadow=0;" vertex="1" parent="1">
          <mxGeometry x="-299" y="883.3800000000001" width="110" height="45" as="geometry" />
        </mxCell>
        <mxCell id="0nwvGlXKgpNKtvV_KcSy-36" value="..." style="text;strokeColor=none;align=center;fillColor=none;html=1;verticalAlign=middle;whiteSpace=wrap;rounded=0;fontSize=39;" vertex="1" parent="1">
          <mxGeometry x="-200" y="878.3800000000001" width="60" height="30" as="geometry" />
        </mxCell>
        <mxCell id="0nwvGlXKgpNKtvV_KcSy-37" value="&lt;font style=&quot;font-size: 19px;&quot;&gt;温控设备n&lt;/font&gt;" style="rounded=1;whiteSpace=wrap;html=1;fillColor=#d5e8d4;strokeColor=#82b366;glass=0;shadow=0;" vertex="1" parent="1">
          <mxGeometry x="-150" y="883.3800000000001" width="110" height="45" as="geometry" />
        </mxCell>
        <mxCell id="0nwvGlXKgpNKtvV_KcSy-38" value="" style="group;rotation=90;" vertex="1" connectable="0" parent="1">
          <mxGeometry x="-591" y="770" width="140" height="26" as="geometry" />
        </mxCell>
        <mxCell id="0nwvGlXKgpNKtvV_KcSy-39" value="" style="rounded=0;whiteSpace=wrap;html=1;fillColor=#f5f5f5;fontColor=#333333;strokeColor=#666666;rotation=90;" vertex="1" parent="0nwvGlXKgpNKtvV_KcSy-38">
          <mxGeometry width="140" height="26" as="geometry" />
        </mxCell>
        <mxCell id="0nwvGlXKgpNKtvV_KcSy-40" value="" style="rounded=0;whiteSpace=wrap;html=1;fillColor=#bac8d3;strokeColor=#23445d;rotation=90;" vertex="1" parent="0nwvGlXKgpNKtvV_KcSy-38">
          <mxGeometry x="65" y="-44" width="10" height="17" as="geometry" />
        </mxCell>
        <mxCell id="0nwvGlXKgpNKtvV_KcSy-41" value="" style="rounded=0;whiteSpace=wrap;html=1;fillColor=#bac8d3;strokeColor=#23445d;rotation=90;" vertex="1" parent="0nwvGlXKgpNKtvV_KcSy-38">
          <mxGeometry x="65" y="-12" width="10" height="17" as="geometry" />
        </mxCell>
        <mxCell id="0nwvGlXKgpNKtvV_KcSy-42" value="" style="rounded=0;whiteSpace=wrap;html=1;fillColor=#bac8d3;strokeColor=#23445d;rotation=90;" vertex="1" parent="0nwvGlXKgpNKtvV_KcSy-38">
          <mxGeometry x="65" y="21" width="10" height="17" as="geometry" />
        </mxCell>
        <mxCell id="0nwvGlXKgpNKtvV_KcSy-43" value="" style="rounded=0;whiteSpace=wrap;html=1;fillColor=#bac8d3;strokeColor=#23445d;rotation=90;" vertex="1" parent="0nwvGlXKgpNKtvV_KcSy-38">
          <mxGeometry x="65" y="53" width="10" height="17" as="geometry" />
        </mxCell>
        <mxCell id="0nwvGlXKgpNKtvV_KcSy-44" value="" style="rounded=1;whiteSpace=wrap;html=1;shadow=0;" vertex="1" parent="1">
          <mxGeometry x="-480" y="1100" width="220.83" height="80" as="geometry" />
        </mxCell>
        <mxCell id="0nwvGlXKgpNKtvV_KcSy-49" value="&lt;font&gt;USB&lt;/font&gt;" style="rounded=0;whiteSpace=wrap;html=1;fillColor=#d5e8d4;strokeColor=#82b366;fontSize=26;" vertex="1" parent="1">
          <mxGeometry x="180" y="1113" width="90" height="50" as="geometry" />
        </mxCell>
        <mxCell id="0nwvGlXKgpNKtvV_KcSy-59" value="" style="html=1;shadow=0;dashed=0;align=center;verticalAlign=middle;shape=mxgraph.arrows2.twoWayArrow;dy=0.74;dx=18.33;rotation=-90;" vertex="1" parent="1">
          <mxGeometry x="-718" y="1273.76" width="377.51" height="30" as="geometry" />
        </mxCell>
        <mxCell id="0nwvGlXKgpNKtvV_KcSy-64" value="" style="rounded=1;whiteSpace=wrap;html=1;shadow=0;" vertex="1" parent="1">
          <mxGeometry x="-480" y="1200" width="220.83" height="80" as="geometry" />
        </mxCell>
        <mxCell id="0nwvGlXKgpNKtvV_KcSy-66" value="&lt;span style=&quot;font-size: 21px;&quot;&gt;UART1&lt;/span&gt;" style="rounded=0;whiteSpace=wrap;html=1;fillColor=#d5e8d4;strokeColor=#82b366;" vertex="1" parent="1">
          <mxGeometry x="-354" y="1207" width="90" height="30" as="geometry" />
        </mxCell>
        <mxCell id="0nwvGlXKgpNKtvV_KcSy-67" value="" style="rounded=1;whiteSpace=wrap;html=1;shadow=0;" vertex="1" parent="1">
          <mxGeometry x="-480" y="1290" width="220.83" height="80" as="geometry" />
        </mxCell>
        <mxCell id="0nwvGlXKgpNKtvV_KcSy-70" value="" style="rounded=1;whiteSpace=wrap;html=1;shadow=0;" vertex="1" parent="1">
          <mxGeometry x="-480" y="1390" width="220.83" height="80" as="geometry" />
        </mxCell>
        <mxCell id="0nwvGlXKgpNKtvV_KcSy-73" value="" style="html=1;shadow=0;dashed=0;align=center;verticalAlign=middle;shape=mxgraph.arrows2.twoWayArrow;dy=0.66;dx=11.67;" vertex="1" parent="1">
          <mxGeometry x="-522" y="1146.5" width="40" height="17" as="geometry" />
        </mxCell>
        <mxCell id="0nwvGlXKgpNKtvV_KcSy-79" value="&lt;span&gt;注射泵×7&lt;/span&gt;" style="rounded=1;whiteSpace=wrap;html=1;fillColor=#d5e8d4;strokeColor=#82b366;glass=0;shadow=0;fontSize=21;" vertex="1" parent="1">
          <mxGeometry x="-207" y="1108.37" width="110" height="27.25" as="geometry" />
        </mxCell>
        <mxCell id="0nwvGlXKgpNKtvV_KcSy-83" value="" style="html=1;shadow=0;dashed=0;align=center;verticalAlign=middle;shape=mxgraph.arrows2.twoWayArrow;dy=0.66;dx=11.67;" vertex="1" parent="1">
          <mxGeometry x="-521" y="1249.5" width="40" height="17" as="geometry" />
        </mxCell>
        <mxCell id="0nwvGlXKgpNKtvV_KcSy-84" value="" style="html=1;shadow=0;dashed=0;align=center;verticalAlign=middle;shape=mxgraph.arrows2.twoWayArrow;dy=0.66;dx=11.67;" vertex="1" parent="1">
          <mxGeometry x="-522" y="1338.5" width="40" height="17" as="geometry" />
        </mxCell>
        <mxCell id="0nwvGlXKgpNKtvV_KcSy-85" value="" style="html=1;shadow=0;dashed=0;align=center;verticalAlign=middle;shape=mxgraph.arrows2.twoWayArrow;dy=0.66;dx=11.67;" vertex="1" parent="1">
          <mxGeometry x="-519" y="1437.5" width="40" height="17" as="geometry" />
        </mxCell>
        <mxCell id="0nwvGlXKgpNKtvV_KcSy-86" value="" style="html=1;shadow=0;dashed=0;align=center;verticalAlign=middle;shape=mxgraph.arrows2.twoWayArrow;dy=0.66;dx=11.67;" vertex="1" parent="1">
          <mxGeometry x="-574.92" y="1172.25" width="35.84" height="17" as="geometry" />
        </mxCell>
        <mxCell id="0nwvGlXKgpNKtvV_KcSy-87" value="" style="html=1;shadow=0;dashed=0;align=center;verticalAlign=middle;shape=mxgraph.arrows2.twoWayArrow;dy=0.66;dx=11.67;" vertex="1" parent="1">
          <mxGeometry x="-250" y="1113.5" width="40" height="17" as="geometry" />
        </mxCell>
        <mxCell id="0nwvGlXKgpNKtvV_KcSy-88" value="&lt;span&gt;切换阀×3&lt;/span&gt;" style="rounded=1;whiteSpace=wrap;html=1;fillColor=#d5e8d4;strokeColor=#82b366;glass=0;shadow=0;fontSize=21;" vertex="1" parent="1">
          <mxGeometry x="-207" y="1207" width="110" height="27.25" as="geometry" />
        </mxCell>
        <mxCell id="0nwvGlXKgpNKtvV_KcSy-89" value="" style="html=1;shadow=0;dashed=0;align=center;verticalAlign=middle;shape=mxgraph.arrows2.twoWayArrow;dy=0.66;dx=11.67;" vertex="1" parent="1">
          <mxGeometry x="-250" y="1213" width="40" height="17" as="geometry" />
        </mxCell>
        <mxCell id="0nwvGlXKgpNKtvV_KcSy-91" value="&lt;span&gt;温控设备&lt;/span&gt;" style="rounded=1;whiteSpace=wrap;html=1;fillColor=#d5e8d4;strokeColor=#82b366;glass=0;shadow=0;fontSize=21;" vertex="1" parent="1">
          <mxGeometry x="-207" y="1297" width="110" height="27.25" as="geometry" />
        </mxCell>
        <mxCell id="0nwvGlXKgpNKtvV_KcSy-92" value="" style="html=1;shadow=0;dashed=0;align=center;verticalAlign=middle;shape=mxgraph.arrows2.twoWayArrow;dy=0.66;dx=11.67;" vertex="1" parent="1">
          <mxGeometry x="-250" y="1303" width="40" height="17" as="geometry" />
        </mxCell>
        <mxCell id="0nwvGlXKgpNKtvV_KcSy-93" value="&lt;span&gt;温控设备&lt;/span&gt;" style="rounded=1;whiteSpace=wrap;html=1;fillColor=#d5e8d4;strokeColor=#82b366;glass=0;shadow=0;fontSize=21;" vertex="1" parent="1">
          <mxGeometry x="-207" y="1335" width="110" height="27.25" as="geometry" />
        </mxCell>
        <mxCell id="0nwvGlXKgpNKtvV_KcSy-94" value="" style="html=1;shadow=0;dashed=0;align=center;verticalAlign=middle;shape=mxgraph.arrows2.twoWayArrow;dy=0.66;dx=11.67;" vertex="1" parent="1">
          <mxGeometry x="-250" y="1341" width="40" height="17" as="geometry" />
        </mxCell>
        <mxCell id="0nwvGlXKgpNKtvV_KcSy-97" value="&lt;span&gt;温控设备&lt;/span&gt;" style="rounded=1;whiteSpace=wrap;html=1;fillColor=#d5e8d4;strokeColor=#82b366;glass=0;shadow=0;fontSize=21;" vertex="1" parent="1">
          <mxGeometry x="-207" y="1397" width="110" height="27.25" as="geometry" />
        </mxCell>
        <mxCell id="0nwvGlXKgpNKtvV_KcSy-98" value="" style="html=1;shadow=0;dashed=0;align=center;verticalAlign=middle;shape=mxgraph.arrows2.twoWayArrow;dy=0.66;dx=11.67;" vertex="1" parent="1">
          <mxGeometry x="-250" y="1403" width="40" height="17" as="geometry" />
        </mxCell>
        <mxCell id="0nwvGlXKgpNKtvV_KcSy-99" value="&lt;span&gt;温控设备&lt;/span&gt;" style="rounded=1;whiteSpace=wrap;html=1;fillColor=#d5e8d4;strokeColor=#82b366;glass=0;shadow=0;fontSize=21;" vertex="1" parent="1">
          <mxGeometry x="-207" y="1435" width="110" height="27.25" as="geometry" />
        </mxCell>
        <mxCell id="0nwvGlXKgpNKtvV_KcSy-100" value="" style="html=1;shadow=0;dashed=0;align=center;verticalAlign=middle;shape=mxgraph.arrows2.twoWayArrow;dy=0.66;dx=11.67;" vertex="1" parent="1">
          <mxGeometry x="-250" y="1441" width="40" height="17" as="geometry" />
        </mxCell>
        <mxCell id="0nwvGlXKgpNKtvV_KcSy-102" value="&lt;span style=&quot;font-size: 21px;&quot;&gt;USB&lt;/span&gt;" style="rounded=0;whiteSpace=wrap;html=1;fillColor=#d5e8d4;strokeColor=#82b366;" vertex="1" parent="1">
          <mxGeometry x="-354" y="1244" width="90" height="30" as="geometry" />
        </mxCell>
        <mxCell id="0nwvGlXKgpNKtvV_KcSy-106" value="&lt;font style=&quot;font-size: 21px;&quot;&gt;压力传感器&lt;/font&gt;" style="rounded=1;whiteSpace=wrap;html=1;fillColor=#d5e8d4;strokeColor=#82b366;glass=0;shadow=0;" vertex="1" parent="1">
          <mxGeometry x="-207" y="1145" width="110" height="27.25" as="geometry" />
        </mxCell>
        <mxCell id="0nwvGlXKgpNKtvV_KcSy-107" value="" style="html=1;shadow=0;dashed=0;align=center;verticalAlign=middle;shape=mxgraph.arrows2.twoWayArrow;dy=0.66;dx=11.67;" vertex="1" parent="1">
          <mxGeometry x="-250" y="1150.13" width="40" height="17" as="geometry" />
        </mxCell>
        <mxCell id="0nwvGlXKgpNKtvV_KcSy-108" value="&lt;font style=&quot;font-size: 21px;&quot;&gt;压力传感器&lt;/font&gt;" style="rounded=1;whiteSpace=wrap;html=1;fillColor=#d5e8d4;strokeColor=#82b366;glass=0;shadow=0;" vertex="1" parent="1">
          <mxGeometry x="-207" y="1246" width="110" height="27.25" as="geometry" />
        </mxCell>
        <mxCell id="0nwvGlXKgpNKtvV_KcSy-109" value="" style="html=1;shadow=0;dashed=0;align=center;verticalAlign=middle;shape=mxgraph.arrows2.twoWayArrow;dy=0.66;dx=11.67;" vertex="1" parent="1">
          <mxGeometry x="-250" y="1251.13" width="40" height="17" as="geometry" />
        </mxCell>
        <mxCell id="0nwvGlXKgpNKtvV_KcSy-111" value="" style="html=1;shadow=0;dashed=0;align=center;verticalAlign=middle;shape=mxgraph.arrows2.twoWayArrow;dy=0.66;dx=11.67;rotation=-90;" vertex="1" parent="1">
          <mxGeometry x="-681" y="1324.25" width="40" height="17" as="geometry" />
        </mxCell>
        <mxCell id="0nwvGlXKgpNKtvV_KcSy-114" value="MCU2" style="text;strokeColor=none;align=center;fillColor=none;html=1;verticalAlign=middle;whiteSpace=wrap;rounded=0;fontSize=26;" vertex="1" parent="1">
          <mxGeometry x="-480" y="1201" width="100" height="40" as="geometry" />
        </mxCell>
        <mxCell id="0nwvGlXKgpNKtvV_KcSy-115" value="FDCAN" style="rounded=0;whiteSpace=wrap;html=1;fillColor=#dae8fc;strokeColor=#6c8ebf;gradientColor=none;fontSize=24;" vertex="1" parent="1">
          <mxGeometry x="-472" y="1243" width="89.17" height="30" as="geometry" />
        </mxCell>
        <mxCell id="0nwvGlXKgpNKtvV_KcSy-116" value="FDCAN" style="rounded=0;whiteSpace=wrap;html=1;fillColor=#dae8fc;strokeColor=#6c8ebf;gradientColor=none;fontSize=24;" vertex="1" parent="1">
          <mxGeometry x="-472" y="1142" width="89.17" height="30" as="geometry" />
        </mxCell>
        <mxCell id="0nwvGlXKgpNKtvV_KcSy-117" value="MCU1" style="text;strokeColor=none;align=center;fillColor=none;html=1;verticalAlign=middle;whiteSpace=wrap;rounded=0;fontSize=26;" vertex="1" parent="1">
          <mxGeometry x="-480" y="1100" width="100" height="40" as="geometry" />
        </mxCell>
        <mxCell id="0nwvGlXKgpNKtvV_KcSy-118" value="&lt;span style=&quot;font-size: 21px;&quot;&gt;UART1&lt;/span&gt;" style="rounded=0;whiteSpace=wrap;html=1;fillColor=#d5e8d4;strokeColor=#82b366;" vertex="1" parent="1">
          <mxGeometry x="-354" y="1106" width="90" height="30" as="geometry" />
        </mxCell>
        <mxCell id="0nwvGlXKgpNKtvV_KcSy-119" value="&lt;span style=&quot;font-size: 21px;&quot;&gt;USB&lt;/span&gt;" style="rounded=0;whiteSpace=wrap;html=1;fillColor=#d5e8d4;strokeColor=#82b366;" vertex="1" parent="1">
          <mxGeometry x="-354" y="1143" width="90" height="30" as="geometry" />
        </mxCell>
        <mxCell id="0nwvGlXKgpNKtvV_KcSy-120" value="FDCAN" style="rounded=0;whiteSpace=wrap;html=1;fillColor=#dae8fc;strokeColor=#6c8ebf;gradientColor=none;fontSize=24;" vertex="1" parent="1">
          <mxGeometry x="-472" y="1332" width="89.17" height="30" as="geometry" />
        </mxCell>
        <mxCell id="0nwvGlXKgpNKtvV_KcSy-121" value="MCU3" style="text;strokeColor=none;align=center;fillColor=none;html=1;verticalAlign=middle;whiteSpace=wrap;rounded=0;fontSize=26;" vertex="1" parent="1">
          <mxGeometry x="-480" y="1290" width="100" height="40" as="geometry" />
        </mxCell>
        <mxCell id="0nwvGlXKgpNKtvV_KcSy-122" value="&lt;span style=&quot;font-size: 21px;&quot;&gt;PWM2&lt;/span&gt;" style="rounded=0;whiteSpace=wrap;html=1;fillColor=#d5e8d4;strokeColor=#82b366;" vertex="1" parent="1">
          <mxGeometry x="-354" y="1333" width="90" height="30" as="geometry" />
        </mxCell>
        <mxCell id="0nwvGlXKgpNKtvV_KcSy-123" value="&lt;span style=&quot;font-size: 21px;&quot;&gt;PWM1&lt;/span&gt;" style="rounded=0;whiteSpace=wrap;html=1;fillColor=#d5e8d4;strokeColor=#82b366;" vertex="1" parent="1">
          <mxGeometry x="-354" y="1296" width="90" height="30" as="geometry" />
        </mxCell>
        <mxCell id="0nwvGlXKgpNKtvV_KcSy-124" value="MCU3" style="text;strokeColor=none;align=center;fillColor=none;html=1;verticalAlign=middle;whiteSpace=wrap;rounded=0;fontSize=26;" vertex="1" parent="1">
          <mxGeometry x="-480" y="1390" width="100" height="40" as="geometry" />
        </mxCell>
        <mxCell id="0nwvGlXKgpNKtvV_KcSy-125" value="FDCAN" style="rounded=0;whiteSpace=wrap;html=1;fillColor=#dae8fc;strokeColor=#6c8ebf;gradientColor=none;fontSize=24;" vertex="1" parent="1">
          <mxGeometry x="-472" y="1432" width="89.17" height="30" as="geometry" />
        </mxCell>
        <mxCell id="0nwvGlXKgpNKtvV_KcSy-126" value="&lt;span style=&quot;font-size: 21px;&quot;&gt;PWM2&lt;/span&gt;" style="rounded=0;whiteSpace=wrap;html=1;fillColor=#d5e8d4;strokeColor=#82b366;" vertex="1" parent="1">
          <mxGeometry x="-354" y="1433" width="90" height="30" as="geometry" />
        </mxCell>
        <mxCell id="0nwvGlXKgpNKtvV_KcSy-127" value="&lt;span style=&quot;font-size: 21px;&quot;&gt;PWM1&lt;/span&gt;" style="rounded=0;whiteSpace=wrap;html=1;fillColor=#d5e8d4;strokeColor=#82b366;" vertex="1" parent="1">
          <mxGeometry x="-354" y="1396" width="90" height="30" as="geometry" />
        </mxCell>
      </root>
    </mxGraphModel>
  </diagram>
</mxfile>
